<svg xmlns="http://www.w3.org/2000/svg" enable-background="new 0 0 47.5 47.5" viewBox="0 0 47.5 47.5" id="tennis"><defs><clipPath id="a"><path d="M0 38h38V0H0v38Z"></path></clipPath><clipPath id="b"><path d="M1 19C1 9.059 9.059 1 19 1c9.94 0 18 8.059 18 18s-8.059 18-18 18S1 28.941 1 19"></path></clipPath></defs><g clip-path="url(#a)" transform="matrix(1.25 0 0 -1.25 0 47.5)"><path fill="#77b255" d="M0 0c-9.941 0-18 8.059-18 18s8.059 18 18 18 18-8.059 18-18S9.94 0 0 0" transform="translate(19 1)"></path></g><g clip-path="url(#b)" transform="matrix(1.25 0 0 -1.25 0 47.5)"><path fill="#a6d388" d="M0 0c4.352 0 9-3.678 9-14S4.352-28 0-28s-9 3.678-9 14S-4.352 0 0 0" transform="translate(35 33)"></path><path fill="#fff" d="M0 0c4.318 0 7 4.598 7 12S4.318 24 0 24s-7-4.598-7-12S-4.318 0 0 0m0 26c4.352 0 9-3.678 9-14S4.352-2 0-2s-9 3.678-9 14 4.648 14 9 14" transform="translate(35 7)"></path><path fill="#a6d388" d="M0 0c4.351 0 9-3.678 9-14S4.351-28 0-28s-9 3.678-9 14S-4.351 0 0 0" transform="translate(3 33)"></path><path fill="#fff" d="M0 0c4.317 0 7 4.598 7 12S4.317 24 0 24s-7-4.598-7-12C-7 4.599-4.317 0 0 0m0 26c4.351 0 9-3.678 9-14S4.351-2 0-2s-9 3.678-9 14 4.649 14 9 14" transform="translate(3 7)"></path></g></svg>